<svg fill="none" height="415" viewBox="0 0 1280 415" width="1280" xmlns="http://www.w3.org/2000/svg" xmlns:xlink="http://www.w3.org/1999/xlink"><linearGradient id="a" gradientUnits="userSpaceOnUse" x1="-.000005" x2="1280" y1="206.961" y2="206.961"><stop offset="0" stop-color="#6c6de8"/><stop offset=".692708" stop-color="#44dbdc"/></linearGradient><mask id="b" height="415" maskUnits="userSpaceOnUse" width="725" x="0" y="0"><path d="m0 0h725v415h-725z" fill="#d9d9d9"/></mask><path d="m0 0h1280v415h-1280z" fill="url(#a)"/><g mask="url(#b)" opacity=".4"><g fill="#fff"><path d="m66.3721 390.108c-1.2687 0-2.259-1.018-2.259-2.253 0-1.234 1.0212-2.253 2.259-2.253s2.2899 1.019 2.2899 2.253c0 1.235-1.0211 2.253-2.2899 2.253z"/><path d="m66.3721 411.066c-1.2687 0-2.259-1.018-2.259-2.284 0-1.265 1.0212-2.253 2.259-2.253s2.2899 1.019 2.2899 2.253c0 1.235-1.0211 2.284-2.2899 2.284z"/><path d="m85.6508 390.108c-1.2687 0-2.259-1.018-2.259-2.253 0-1.234 1.0212-2.253 2.259-2.253s2.29 1.019 2.29 2.253c0 1.235-1.0212 2.253-2.29 2.253z"/><path d="m85.6508 411.066c-1.2687 0-2.259-1.018-2.259-2.284 0-1.265 1.0212-2.253 2.259-2.253s2.29 1.019 2.29 2.253c0 1.235-1.0212 2.284-2.29 2.284z"/><path d="m104.899 390.108c-1.269 0-2.259-1.018-2.259-2.253 0-1.234 1.021-2.253 2.259-2.253s2.29 1.019 2.29 2.253c0 1.235-1.021 2.253-2.29 2.253z"/><path d="m104.899 411.066c-1.269 0-2.259-1.018-2.259-2.284 0-1.265 1.021-2.253 2.259-2.253s2.29 1.019 2.29 2.253c0 1.235-1.021 2.284-2.29 2.284z"/><path d="m124.147 390.108c-1.269 0-2.259-1.018-2.259-2.253 0-1.234 1.021-2.253 2.259-2.253 1.237 0 2.259 1.019 2.259 2.253 0 1.235-1.022 2.253-2.259 2.253z"/><path d="m124.147 411.066c-1.269 0-2.259-1.018-2.259-2.284 0-1.265 1.021-2.253 2.259-2.253 1.237 0 2.259 1.019 2.259 2.253 0 1.235-1.022 2.284-2.259 2.284z"/><path d="m66.3721 327.298c-1.2687 0-2.259-1.018-2.259-2.253 0-1.234 1.0212-2.253 2.259-2.284 1.2688 0 2.2899 1.019 2.2899 2.253 0 1.235-1.0211 2.253-2.2899 2.253z"/><path d="m66.3721 348.256c-1.2687 0-2.259-1.019-2.259-2.253 0-1.235 1.0212-2.253 2.259-2.253s2.2899 1.018 2.2899 2.253c0 1.234-1.0211 2.253-2.2899 2.253z"/><path d="m66.3721 369.182c-1.2687 0-2.259-1.018-2.259-2.253s1.0212-2.253 2.259-2.253 2.2899 1.018 2.2899 2.253c0 1.265-1.0211 2.253-2.2899 2.253z"/><path d="m85.6508 327.299c-1.2687 0-2.259-1.019-2.259-2.253 0-1.235 1.0212-2.254 2.259-2.254s2.29 1.019 2.29 2.254c0 1.234-1.0212 2.253-2.29 2.253z"/><path d="m85.6508 348.256c-1.2687 0-2.259-1.019-2.259-2.253 0-1.235 1.0212-2.253 2.259-2.253 1.2688 0 2.29 1.018 2.29 2.284 0 1.265-1.0212 2.253-2.29 2.253z"/><path d="m85.6508 369.182c-1.2687 0-2.259-1.018-2.259-2.253s1.0212-2.253 2.259-2.253 2.29 1.018 2.29 2.253-1.0212 2.253-2.29 2.253z"/><path d="m104.899 327.299c-1.269 0-2.259-1.019-2.259-2.253 0-1.235 1.021-2.254 2.259-2.254s2.29 1.019 2.29 2.254c0 1.234-1.021 2.253-2.29 2.253z"/><path d="m27.8764 390.108c-1.2688 0-2.259-1.018-2.259-2.253 0-1.234 1.0212-2.284 2.259-2.284s2.2899 1.019 2.2899 2.284c0 1.266-1.0212 2.253-2.2899 2.253z"/><path d="m27.8764 411.066c-1.2688 0-2.259-1.018-2.259-2.253 0-1.234 1.0212-2.253 2.259-2.253s2.2899 1.019 2.2899 2.253c0 1.235-1.0212 2.253-2.2899 2.253z"/><path d="m47.1241 390.108c-1.2687 0-2.259-1.018-2.259-2.253 0-1.234 1.0212-2.253 2.259-2.253s2.2899 1.019 2.2899 2.253c0 1.235-1.0211 2.253-2.2899 2.253z"/><path d="m47.1241 411.066c-1.2687 0-2.259-1.018-2.259-2.284 0-1.265 1.0212-2.253 2.259-2.253s2.2899 1.019 2.2899 2.253c0 1.235-1.0211 2.284-2.2899 2.284z"/><path d="m27.8764 327.298c-1.2688 0-2.259-1.018-2.259-2.253s1.0212-2.253 2.259-2.253 2.2899 1.018 2.2899 2.253-1.0212 2.253-2.2899 2.253z"/><path d="m27.8764 348.256c-1.2688 0-2.259-1.019-2.259-2.253 0-1.235 1.0212-2.253 2.259-2.253s2.2899 1.018 2.2899 2.253c0 1.234-1.0212 2.253-2.2899 2.253z"/><path d="m27.8764 369.182c-1.2688 0-2.259-1.018-2.259-2.253s1.0212-2.253 2.259-2.253 2.2899 1.018 2.2899 2.253-1.0212 2.253-2.2899 2.253z"/><path d="m47.1241 327.299c-1.2687 0-2.259-1.019-2.259-2.253 0-1.235 1.0212-2.254 2.259-2.254s2.2899 1.019 2.2899 2.254c0 1.234-1.0211 2.253-2.2899 2.253z"/><path d="m47.1241 348.256c-1.2687 0-2.259-1.019-2.259-2.253 0-1.235 1.0212-2.253 2.259-2.253s2.2899 1.018 2.2899 2.253c0 1.234-1.0211 2.253-2.2899 2.253z"/><path d="m47.1241 369.182c-1.2687 0-2.259-1.018-2.259-2.253s1.0212-2.253 2.259-2.253 2.2899 1.018 2.2899 2.253-1.0211 2.253-2.2899 2.253z"/><path d="m104.899 348.256c-1.269 0-2.259-1.019-2.259-2.253 0-1.235 1.021-2.253 2.259-2.253s2.29 1.018 2.29 2.253c0 1.234-1.021 2.253-2.29 2.253z"/><path d="m104.899 369.182c-1.269 0-2.259-1.018-2.259-2.253s1.021-2.253 2.259-2.253 2.29 1.018 2.29 2.253-1.021 2.253-2.29 2.253z"/><path d="m124.147 327.299c-1.269 0-2.259-1.019-2.259-2.253 0-1.235 1.021-2.254 2.259-2.254 1.237 0 2.259 1.019 2.259 2.254 0 1.234-1.022 2.253-2.259 2.253z"/><path d="m124.147 348.256c-1.269 0-2.259-1.019-2.259-2.253 0-1.235 1.021-2.253 2.259-2.253 1.237 0 2.259 1.018 2.259 2.253 0 1.234-1.022 2.253-2.259 2.253z"/><path d="m124.147 369.182c-1.269 0-2.259-1.018-2.259-2.253s1.021-2.253 2.259-2.253c1.237 0 2.259 1.018 2.259 2.253s-1.022 2.253-2.259 2.253z"/><path d="m66.3721 264.519c-1.2687 0-2.259-1.018-2.259-2.284 0-1.265 1.0212-2.253 2.259-2.253s2.2899 1.019 2.2899 2.253c0 1.235-1.0211 2.284-2.2899 2.284z"/><path d="m66.3721 285.446c-1.2687 0-2.259-1.019-2.259-2.253 0-1.235 1.0212-2.254 2.259-2.254s2.2899 1.019 2.2899 2.254c0 1.234-1.0211 2.253-2.2899 2.253z"/><path d="m66.3721 306.371c-1.2687 0-2.259-1.018-2.259-2.253 0-1.234 1.0212-2.253 2.259-2.253s2.2899 1.019 2.2899 2.253c0 1.235-1.0211 2.253-2.2899 2.253z"/><path d="m85.6508 264.519c-1.2687 0-2.259-1.018-2.259-2.284 0-1.265 1.0212-2.253 2.259-2.253s2.29 1.019 2.29 2.253c0 1.235-1.0212 2.284-2.29 2.284z"/><path d="m85.6508 285.446c-1.2687 0-2.259-1.019-2.259-2.253 0-1.235 1.0212-2.254 2.259-2.254s2.29 1.019 2.29 2.254c0 1.234-1.0212 2.253-2.29 2.253z"/><path d="m85.6508 306.371c-1.2687 0-2.259-1.018-2.259-2.253 0-1.234 1.0212-2.253 2.259-2.253s2.29 1.019 2.29 2.253c0 1.235-1.0212 2.253-2.29 2.253z"/><path d="m104.899 264.519c-1.269 0-2.259-1.018-2.259-2.284 0-1.265 1.021-2.253 2.259-2.253s2.29 1.019 2.29 2.253c0 1.235-1.021 2.284-2.29 2.284z"/><path d="m27.8764 264.519c-1.2688 0-2.259-1.018-2.259-2.284 0-1.265 1.0212-2.253 2.259-2.253s2.2899 1.019 2.2899 2.253c0 1.235-1.0212 2.284-2.2899 2.284z"/><path d="m27.8764 285.446c-1.2688 0-2.259-1.019-2.259-2.253 0-1.235 1.0212-2.254 2.259-2.254s2.2899 1.019 2.2899 2.254c0 1.234-1.0212 2.253-2.2899 2.253z"/><path d="m27.8764 306.372c-1.2688 0-2.259-1.019-2.259-2.253 0-1.235 1.0212-2.253 2.259-2.253s2.2899 1.018 2.2899 2.253c0 1.234-1.0212 2.253-2.2899 2.253z"/><path d="m47.1241 264.519c-1.2687 0-2.259-1.018-2.259-2.284 0-1.265 1.0212-2.253 2.259-2.253s2.2899 1.019 2.2899 2.253c0 1.235-1.0211 2.284-2.2899 2.284z"/><path d="m47.1241 285.445c-1.2687 0-2.259-1.018-2.259-2.253 0-1.234 1.0212-2.284 2.259-2.284s2.2899 1.019 2.2899 2.253c0 1.235-1.0211 2.253-2.2899 2.253z"/><path d="m47.1241 306.371c-1.2687 0-2.259-1.018-2.259-2.253 0-1.234 1.0212-2.253 2.259-2.253s2.2899 1.019 2.2899 2.253c0 1.235-1.0211 2.253-2.2899 2.253z"/><path d="m104.899 285.446c-1.269 0-2.259-1.019-2.259-2.253 0-1.235 1.021-2.254 2.259-2.254s2.29 1.019 2.29 2.254c0 1.234-1.021 2.253-2.29 2.253z"/><path d="m104.899 306.371c-1.269 0-2.259-1.018-2.259-2.253 0-1.234 1.021-2.253 2.259-2.253s2.29 1.019 2.29 2.253c0 1.235-1.021 2.253-2.29 2.253z"/><path d="m124.147 264.519c-1.269 0-2.259-1.018-2.259-2.284 0-1.265 1.021-2.253 2.259-2.253 1.237 0 2.259 1.019 2.259 2.253 0 1.235-1.022 2.284-2.259 2.284z"/><path d="m124.147 285.446c-1.269 0-2.259-1.019-2.259-2.253 0-1.235 1.021-2.254 2.259-2.254 1.237 0 2.259 1.019 2.259 2.254 0 1.234-1.022 2.253-2.259 2.253z"/><path d="m124.147 306.371c-1.269 0-2.259-1.018-2.259-2.253 0-1.234 1.021-2.253 2.259-2.253 1.237 0 2.259 1.019 2.259 2.253 0 1.235-1.022 2.253-2.259 2.253z"/><path d="m704.46 404.77-30.419-60.588-30.326 60.588h-19.155l49.481-98.737 49.512 98.737z"/><path d="m333.924 249.704 8.293 18.859 18.907 8.271-18.907 8.241-8.293 18.859-8.263-18.859-18.907-8.241 18.907-8.271z"/><path d="m673.925 209.918c0 1.265-1.022 2.284-2.29 2.284-1.269 0-2.29-1.019-2.29-2.284 0-1.266 1.021-2.284 2.29-2.284 1.268 0 2.29 1.018 2.29 2.284z"/><path d="m695.06 209.918c0 1.265-1.021 2.284-2.29 2.284s-2.29-1.019-2.29-2.284c0-1.266 1.021-2.284 2.29-2.284s2.29 1.018 2.29 2.284z"/><path d="m716.164 209.918c0 1.265-1.021 2.284-2.289 2.284-1.269 0-2.29-1.019-2.29-2.284 0-1.266 1.021-2.284 2.29-2.284 1.268 0 2.289 1.018 2.289 2.284z"/><path d="m673.925 190.597c0 1.265-1.022 2.284-2.29 2.284-1.269 0-2.29-1.019-2.29-2.284s1.021-2.284 2.29-2.284c1.268 0 2.29 1.019 2.29 2.284z"/><path d="m695.06 190.597c0 1.265-1.021 2.284-2.29 2.284s-2.29-1.019-2.29-2.284 1.021-2.284 2.29-2.284 2.29 1.019 2.29 2.284z"/><path d="m716.164 190.597c0 1.265-1.021 2.284-2.289 2.284-1.269 0-2.29-1.019-2.29-2.284s1.021-2.284 2.29-2.284c1.268 0 2.289 1.019 2.289 2.284z"/><path d="m673.925 171.244c0 1.266-1.022 2.284-2.29 2.284-1.269 0-2.29-1.018-2.29-2.284 0-1.265 1.021-2.284 2.29-2.284 1.268 0 2.29 1.019 2.29 2.284z"/><path d="m673.925 248.561c0 1.266-1.022 2.284-2.29 2.284-1.269 0-2.29-1.018-2.29-2.284 0-1.265 1.021-2.284 2.29-2.284 1.268 0 2.29 1.019 2.29 2.284z"/><path d="m695.06 248.561c0 1.266-1.021 2.284-2.29 2.284s-2.29-1.018-2.29-2.284c0-1.265 1.021-2.284 2.29-2.284s2.29 1.019 2.29 2.284z"/><path d="m716.164 248.561c0 1.266-1.021 2.284-2.289 2.284-1.269 0-2.29-1.018-2.29-2.284 0-1.265 1.021-2.284 2.29-2.284 1.268 0 2.289 1.019 2.289 2.284z"/><path d="m673.925 229.24c0 1.265-1.022 2.284-2.29 2.284-1.269 0-2.29-1.019-2.29-2.284 0-1.266 1.021-2.284 2.29-2.284 1.268 0 2.29 1.018 2.29 2.284z"/><path d="m695.06 229.24c0 1.265-1.021 2.284-2.29 2.284s-2.29-1.019-2.29-2.284c0-1.266 1.021-2.284 2.29-2.284s2.29 1.018 2.29 2.284z"/><path d="m716.164 229.24c0 1.265-1.021 2.284-2.289 2.284-1.269 0-2.29-1.019-2.29-2.284 0-1.266 1.021-2.284 2.29-2.284 1.268 0 2.289 1.018 2.289 2.284z"/><path d="m695.06 171.244c0 1.266-1.021 2.284-2.29 2.284s-2.29-1.018-2.29-2.284c0-1.265 1.021-2.284 2.29-2.284s2.29 1.019 2.29 2.284z"/><path d="m716.164 171.244c0 1.266-1.021 2.284-2.289 2.284-1.269 0-2.29-1.018-2.29-2.284 0-1.265 1.021-2.284 2.29-2.284 1.268 0 2.289 1.019 2.289 2.284z"/><path d="m673.925 151.923c0 1.266-1.022 2.284-2.29 2.284-1.269 0-2.29-1.018-2.29-2.284 0-1.265 1.021-2.284 2.29-2.284 1.268 0 2.29 1.019 2.29 2.284z"/><path d="m695.06 151.923c0 1.266-1.021 2.284-2.29 2.284s-2.29-1.018-2.29-2.284c0-1.265 1.021-2.284 2.29-2.284s2.29 1.019 2.29 2.284z"/><path d="m716.164 151.923c0 1.266-1.021 2.284-2.289 2.284-1.269 0-2.29-1.018-2.29-2.284 0-1.265 1.021-2.284 2.29-2.284 1.268 0 2.289 1.019 2.289 2.284z"/><path d="m610.58 209.918c0 1.266-1.022 2.284-2.29 2.284-1.269 0-2.29-1.018-2.29-2.284 0-1.265 1.021-2.284 2.29-2.284 1.268 0 2.29 1.019 2.29 2.284z"/><path d="m631.684 209.918c0 1.265-1.021 2.284-2.289 2.284-1.269 0-2.29-1.019-2.29-2.284 0-1.266 1.021-2.284 2.29-2.284 1.268 0 2.289 1.018 2.289 2.284z"/><path d="m652.82 209.918c0 1.265-1.021 2.284-2.29 2.284s-2.29-1.019-2.29-2.284c0-1.266 1.021-2.284 2.29-2.284s2.29 1.018 2.29 2.284z"/><path d="m610.58 190.597c0 1.265-1.022 2.284-2.29 2.284-1.269 0-2.29-1.019-2.29-2.284s1.021-2.284 2.29-2.284c1.268 0 2.29 1.019 2.29 2.284z"/><path d="m631.684 190.597c0 1.265-1.021 2.284-2.289 2.284-1.269 0-2.29-1.019-2.29-2.284s1.021-2.284 2.29-2.284c1.268 0 2.289 1.019 2.289 2.284z"/><path d="m652.82 190.597c0 1.265-1.021 2.284-2.29 2.284s-2.29-1.019-2.29-2.284 1.021-2.284 2.29-2.284 2.29 1.019 2.29 2.284z"/><path d="m610.58 171.244c0 1.266-1.022 2.284-2.29 2.284-1.269 0-2.29-1.018-2.29-2.284 0-1.265 1.021-2.284 2.29-2.284 1.268 0 2.29 1.019 2.29 2.284z"/><path d="m610.58 248.561c0 1.266-1.022 2.284-2.29 2.284-1.269 0-2.29-1.018-2.29-2.284 0-1.265 1.021-2.284 2.29-2.284 1.268 0 2.29 1.019 2.29 2.284z"/><path d="m631.684 248.561c0 1.266-1.021 2.284-2.289 2.284-1.269 0-2.29-1.018-2.29-2.284 0-1.265 1.021-2.284 2.29-2.284 1.268 0 2.289 1.019 2.289 2.284z"/><path d="m652.82 248.561c0 1.266-1.021 2.284-2.29 2.284s-2.29-1.018-2.29-2.284c0-1.265 1.021-2.284 2.29-2.284s2.29 1.019 2.29 2.284z"/><path d="m610.58 229.24c0 1.265-1.022 2.284-2.29 2.284-1.269 0-2.29-1.019-2.29-2.284 0-1.266 1.021-2.284 2.29-2.284 1.268 0 2.29 1.018 2.29 2.284z"/><path d="m631.684 229.24c0 1.265-1.021 2.284-2.289 2.284-1.269 0-2.29-1.019-2.29-2.284 0-1.266 1.021-2.284 2.29-2.284 1.268 0 2.289 1.018 2.289 2.284z"/><path d="m652.82 229.24c0 1.265-1.021 2.284-2.29 2.284s-2.29-1.019-2.29-2.284c0-1.266 1.021-2.284 2.29-2.284s2.29 1.018 2.29 2.284z"/><path d="m631.684 171.244c0 1.266-1.021 2.284-2.289 2.284-1.269 0-2.29-1.018-2.29-2.284 0-1.265 1.021-2.284 2.29-2.284 1.268 0 2.289 1.019 2.289 2.284z"/><path d="m652.82 171.244c0 1.266-1.021 2.284-2.29 2.284s-2.29-1.018-2.29-2.284c0-1.265 1.021-2.284 2.29-2.284s2.29 1.019 2.29 2.284z"/><path d="m610.58 151.923c0 1.266-1.022 2.284-2.29 2.284-1.269 0-2.29-1.018-2.29-2.284 0-1.265 1.021-2.284 2.29-2.284 1.268 0 2.29 1.019 2.29 2.284z"/><path d="m631.684 151.923c0 1.266-1.021 2.284-2.289 2.284-1.269 0-2.29-1.018-2.29-2.284 0-1.265 1.021-2.284 2.29-2.284 1.268 0 2.289 1.019 2.289 2.284z"/><path d="m652.82 151.923c0 1.266-1.021 2.284-2.29 2.284s-2.29-1.018-2.29-2.284c0-1.265 1.021-2.284 2.29-2.284s2.29 1.019 2.29 2.284z"/></g><path d="m135.287 47.6615 21.785-27.0995c.65-.8025-.402-1.8519-1.207-1.2037l-27.169 21.7289c-.31.247-.774.247-1.083 0l-27.17-21.7289c-.8048-.6482-1.857.4012-1.2071 1.2037l21.7851 27.0995c.248.3086.248.7716 0 1.0802l-21.7851 27.0995c-.6499.8025.4023 1.8519 1.2071 1.2037l27.17-21.7289c.309-.2469.773-.2469 1.083 0l27.169 21.7289c.805.6482 1.857-.4012 1.207-1.2037l-21.785-27.0995c-.248-.3086-.248-.7716 0-1.0802z" stroke="#fff" stroke-miterlimit="10" stroke-width=".75"/></g></svg>